<?xml version="1.0" encoding="utf-8"?>
<!-- Generator: Adobe Illustrator 25.0.1, SVG Export Plug-In . SVG Version: 6.00 Build 0)  -->
<svg version="1.1" id="Layer_1" xmlns="http://www.w3.org/2000/svg" xmlns:xlink="http://www.w3.org/1999/xlink" x="0px" y="0px"
	 viewBox="0 0 567 121" style="enable-background:new 0 0 567 121;" xml:space="preserve">
<style type="text/css">
	.st0{fill:#49558A;}
	.st1{fill:none;stroke:#49558A;stroke-width:2;stroke-miterlimit:10;}
</style>
<g>
	<g>
		<path class="st0" d="M74.8,76.3c-5.6,0-9.1-5.5-9.1-14.7v-4.2c0-9.2,3.5-14.8,9.1-14.8c5.1,0,7.6,3.7,8.6,9.6l-3.5,1
			c-0.8-5.1-2.2-7.7-5.1-7.7c-3.7,0-5.4,4.8-5.4,11.5v4.9c0,6.8,1.9,11.5,5.5,11.5c2.9,0,4.3-2.6,5.3-8.1l3.4,0.8
			C82.5,72.5,80,76.3,74.8,76.3z"/>
		<path class="st0" d="M113.2,75.7V47.4h-0.3l-6.7,28.3h-4.1l-6.8-28.3h-0.3v28.3h-3.3V43.1h5.7l6.6,27.9h0.2l6.6-27.9h5.7v32.6
			H113.2z"/>
		<path class="st0" d="M148.2,76.3c-5.6,0-9.1-5.5-9.1-14.7v-4.2c0-9.2,3.5-14.8,9.1-14.8c5.1,0,7.6,3.7,8.6,9.6l-3.5,1
			c-0.8-5.1-2.2-7.7-5.1-7.7c-3.7,0-5.4,4.8-5.4,11.5v4.9c0,6.8,1.9,11.5,5.5,11.5c2.9,0,4.3-2.6,5.3-8.1l3.4,0.8
			C155.9,72.5,153.5,76.3,148.2,76.3z"/>
		<path class="st0" d="M179.1,75.7l-6.4-13.9h-3.6v13.9h-3.7V43.1h7.2c6.2,0,9.8,3,9.8,9.2c0,4.9-2.6,7.7-6.3,8.5l7,14.9H179.1z
			 M172.5,45.9h-3.4v13.2h3.6c3.9,0,6-2.1,6-6.6C178.6,48.2,176.6,45.9,172.5,45.9z"/>
		<path class="st0" d="M191.3,75.7V43.1h15v3H195v11.1h9.1v2.9H195v12.6h11.7v3H191.3z"/>
		<path class="st0" d="M232.4,75.7l-2.1-8.4h-10.7l-2.1,8.4h-3.7l8.6-32.8h5.2l8.6,32.8H232.4z M225.1,46.3h-0.2l-4.7,18.3h9.6
			L225.1,46.3z"/>
		<path class="st0" d="M250.3,46.1v29.6h-3.7V46.1h-7.7v-3H258v3H250.3z"/>
		<path class="st0" d="M265.2,75.7v-1.6h3.6V44.8h-3.6v-1.6h10.9v1.6h-3.6v29.3h3.6v1.6H265.2z"/>
		<path class="st0" d="M295.9,76h-4.5l-8.1-32.9h3.9l6.4,28.1h0.2l6.4-28.1h3.8L295.9,76z"/>
		<path class="st0" d="M311.7,75.7V43.1h15v3h-11.3v11.1h9.1v2.9h-9.1v12.6h11.7v3H311.7z"/>
		<path class="st0" d="M342.7,76.2c-4.7,0-7.5-2.4-9.1-7.3l2.7-1.9c1.4,4.3,3.5,6.2,6.6,6.2c2.8,0,4.8-2.1,4.8-5.6
			c0-3.2-1.4-5.1-5.9-7.1c-5.4-2.3-7.5-4.9-7.5-9.8c0-4.4,3-8.2,7.8-8.2c4.2,0,6.7,2.1,8.4,6.2l-2.7,1.9c-1.4-3.5-3-5.2-5.7-5.2
			c-2.9,0-4.3,2.5-4.3,4.9c0,3,1.3,4.8,5.7,6.7c5.7,2.4,7.7,5.2,7.7,10.2C351.1,73.1,347.3,76.2,342.7,76.2z"/>
	</g>
	<g>
		<path class="st0" d="M394.5,59.7c0-8.6,5-16,12.2-19.5c-2.6-1.1-5.4-1.7-8.4-1.7c-12,0-21.8,9.7-21.8,21.8
			c0,12,9.7,21.8,21.8,21.8c3.5,0,6.7-0.8,9.6-2.3C400,76.5,394.5,68.7,394.5,59.7z"/>
		<circle class="st1" cx="398.7" cy="60.4" r="21.6"/>
	</g>
	<g>
		<path class="st0" d="M454.7,75.9c-5.6,0-9.1-5.5-9.1-14.7V57c0-9.2,3.5-14.8,9.1-14.8c5.1,0,7.6,3.7,8.6,9.6l-3.5,1
			c-0.8-5.1-2.2-7.7-5.1-7.7c-3.7,0-5.4,4.8-5.4,11.5v4.9c0,6.8,1.9,11.5,5.5,11.5c2.9,0,4.3-2.6,5.3-8.1l3.4,0.8
			C462.4,72.1,459.9,75.9,454.7,75.9z"/>
		<path class="st0" d="M480.3,75.9c-5.9,0-9.4-5.5-9.4-14.7V57c0-9.2,3.5-14.8,9.4-14.8c5.8,0,9.4,5.5,9.4,14.7v4.2
			C489.6,70.4,486.1,75.9,480.3,75.9z M485.9,56.3c0-6.4-1.8-11.3-5.6-11.3c-3.9,0-5.7,4.8-5.7,11.2v5.6c0,6.4,1.8,11.3,5.7,11.3
			c3.8,0,5.6-4.8,5.6-11.2V56.3z"/>
		<path class="st0" d="M498.3,75.7c-1.3,0-2.3-1-2.3-2.3c0-1.3,1-2.3,2.3-2.3c1.3,0,2.3,1,2.3,2.3C500.6,74.8,499.6,75.7,498.3,75.7
			z"/>
	</g>
</g>
</svg>
