<?xml version="1.0" encoding="utf-8"?>
<!-- Generator: Adobe Illustrator 24.3.0, SVG Export Plug-In . SVG Version: 6.00 Build 0)  -->
<svg version="1.1" id="Layer_1" xmlns="http://www.w3.org/2000/svg" xmlns:xlink="http://www.w3.org/1999/xlink" x="0px" y="0px"
	 viewBox="0 0 576 576" style="enable-background:new 0 0 576 576;" xml:space="preserve">
<g>
	<path d="M46.27,166.52c-9.07,0-14.91-8.35-14.91-23.19v-7.13c0-14.83,5.83-23.26,14.91-23.26c8.64,0,12.67,6.05,14.11,15.77
		l-6.91,1.73c-1.01-8.06-2.95-11.88-7.2-11.88c-5.18,0-7.49,6.91-7.49,16.78v8.71c0,10.08,2.52,16.85,7.7,16.85
		c4.18,0,6.19-3.82,7.42-12.46l6.7,1.58C59.09,160.54,54.98,166.52,46.27,166.52z"/>
	<path d="M91.34,165.65l-3.02-12.82h-15.7l-3.02,12.82h-7.2l13.25-52.13h10.01l13.25,52.13H91.34z M80.69,120h-0.36l-6.7,27.51
		h13.75L80.69,120z"/>
	<path d="M125.4,165.65l-9.36-21.46h-4.9v21.46h-7.2v-51.84h12.03c9.94,0,15.84,4.9,15.84,14.83c0,7.56-3.82,11.95-9.36,13.39
		l10.58,23.62H125.4z M115.82,119.28h-4.68v19.8h4.82c5.69,0,8.71-3.31,8.71-9.94C124.68,122.67,121.73,119.28,115.82,119.28z"/>
	<path d="M152.18,166.52c-9.5,0-15.41-8.35-15.41-23.19v-7.13c0-14.83,5.9-23.26,15.41-23.26c9.43,0,15.41,8.35,15.41,23.19v7.13
		C167.59,158.09,161.62,166.52,152.18,166.52z M160.18,134.62c0-9.29-2.45-16.2-7.99-16.2s-7.99,6.77-7.99,16.13v10.3
		c0,9.36,2.45,16.2,7.99,16.2s7.99-6.77,7.99-16.13V134.62z"/>
	<path d="M173.92,165.65v-51.84h7.34v45.87h16.63v5.98H173.92z"/>
	<path d="M201.21,165.65v-2.88h5.69v-46.08h-5.69v-2.88h18.58v2.88h-5.69v46.08h5.69v2.88H201.21z"/>
	<path d="M248.16,165.65l-15.55-38.6h-0.29v38.6h-6.05v-51.84h7.56l14.98,37.23h0.29v-37.23h6.12v51.84H248.16z"/>
	<path d="M262.91,165.65v-51.84h24.48v5.9h-17.28v16.13h13.61v5.62h-13.61v18.29h17.93v5.9H262.91z"/>
	<path d="M342.11,165.65v-43.42h-0.36l-9.65,43.42h-7.7l-9.87-43.42h-0.36v43.42h-6.34v-51.84h10.94l9.58,42.63h0.29l9.5-42.63
		h10.87v51.84H342.11z"/>
	<path d="M370.77,166.52c-9.5,0-15.41-8.35-15.41-23.19v-7.13c0-14.83,5.9-23.26,15.41-23.26c9.43,0,15.41,8.35,15.41,23.19v7.13
		C386.18,158.09,380.2,166.52,370.77,166.52z M378.76,134.62c0-9.29-2.45-16.2-7.99-16.2c-5.54,0-7.99,6.77-7.99,16.13v10.3
		c0,9.36,2.45,16.2,7.99,16.2c5.54,0,7.99-6.77,7.99-16.13V134.62z"/>
	<path d="M406.55,166.52c-9.5,0-15.41-8.35-15.41-23.19v-7.13c0-14.83,5.9-23.26,15.41-23.26c9.43,0,15.41,8.35,15.41,23.19v7.13
		C421.96,158.09,415.98,166.52,406.55,166.52z M414.54,134.62c0-9.29-2.45-16.2-7.99-16.2c-5.54,0-7.99,6.77-7.99,16.13v10.3
		c0,9.36,2.45,16.2,7.99,16.2c5.54,0,7.99-6.77,7.99-16.13V134.62z"/>
	<path d="M450.18,165.65l-15.55-38.6h-0.29v38.6h-6.05v-51.84h7.56l14.98,37.23h0.29v-37.23h6.12v51.84H450.18z"/>
	<path d="M464.94,165.65v-51.84h24.48v5.9h-17.28v16.13h13.61v5.62h-13.61v18.29h17.93v5.9H464.94z"/>
	<path d="M513.25,145.28v20.38h-7.34v-20.23l-13.46-31.61h7.92l9.65,24.48l9.58-24.48h7.06L513.25,145.28z"/>
</g>
</svg>
