<?xml version="1.0" encoding="utf-8"?>
<!-- Generator: Adobe Illustrator 25.0.0, SVG Export Plug-In . SVG Version: 6.00 Build 0)  -->
<svg version="1.1" xmlns="http://www.w3.org/2000/svg" xmlns:xlink="http://www.w3.org/1999/xlink" x="0px" y="0px"
	 viewBox="0 0 576 139.06" style="enable-background:new 0 0 576 139.06;" xml:space="preserve">
<style type="text/css">
	.st0{fill:#02161F;}
	.st1{opacity:0.78;}
	.st2{fill:#E3654F;}
	.st3{fill:#FFFFFF;}
</style>
<g id="text">
</g>
<g id="graphic">
	<path class="st0" d="M53.81,67.01c1.88-2.74,4.96-5.24,9.81-5.24c7.24,0,11.06,5.02,11.06,12.37c0,8.32-5.02,14.82-14.2,14.82
		c-5.24,0-7.07-1.77-7.81-2.56l-1.37,1.88c-0.4,0.46-0.63,0.68-1.37,0.68h-1.37c-0.86,0-1.03-0.23-1.03-1.14V52.47
		c0-0.68-0.34-1.03-0.97-1.03H43.9c-0.74-0.06-1.2-1.43-1.2-2.57c0-1.03,0.4-2.28,1.25-2.39l8.32-0.46
		c0.91-0.06,1.25,0.23,1.25,1.25v19.61L53.81,67.01z M53.53,78.7c0,2.79,2,5.02,6.73,5.02c5.36,0,8.27-3.36,8.27-9.06
		c0-4.85-2.51-7.58-6.5-7.58c-4.16,0-6.56,2.79-7.47,4.79c-0.8,1.54-1.03,2.79-1.03,4.28V78.7z"/>
	<path class="st0" d="M85.85,88.96c-4.33,0-7.41-2.28-7.41-7.47c0-6.61,6.04-9.41,13.05-9.41c2,0,3.19,0.23,3.59,0.29
		c0.06-0.4,0.06-1.08,0.06-1.48c0-2.74-1.82-4.05-4.84-4.05c-3.19,0-6.16,1.31-7.3,2c-1.71-0.23-2.85-2.85-1.82-4.79
		c1.03-0.68,4.5-2.28,9.8-2.28c7.41,0,9.92,2.91,9.92,8.84c0,2.45-0.23,5.64-0.23,8.84c0,2.91,0.63,4.22,2.11,4.22
		c0.85,0,1.54-0.4,1.71-0.57c1.48,0.4,2.17,2.91,1.6,4.5c-0.68,0.51-2.28,1.37-5.24,1.37c-3.36,0-5.25-1.82-5.7-4.67l-0.23-0.06
		C93.54,86.28,90.69,88.96,85.85,88.96z M91.78,76.41c-4.05,0-7.35,1.48-7.35,4.56c0,1.88,1.14,2.91,3.36,2.91
		c2.51,0,4.56-1.6,5.7-3.08c1.14-1.43,1.42-3.02,1.54-4.05C94.63,76.64,93.71,76.41,91.78,76.41z"/>
	<path class="st0" d="M128.03,75.56l6.96,6.16c1.14,1.08,1.65,1.37,2.91,1.37h1.25c0.57,0.17,1.03,1.43,1.03,2.51
		s-0.4,2.28-1.03,2.51h-4.45c-1.2,0-2.11-0.29-3.19-1.31l-8.95-8.44c-0.97-0.91-2.11-1.48-4.05-1.48v5.76
		c0,0.34,0.11,0.46,0.46,0.46h3.25c0.57,0.17,1.03,1.43,1.03,2.51s-0.4,2.28-1.03,2.51h-13.28c-0.63-0.23-1.08-1.43-1.08-2.51
		s0.46-2.34,1.08-2.51h3.13c0.4,0,0.46-0.17,0.46-0.46v-30.1c0-0.74-0.23-1.08-0.91-1.08h-2.79c-0.46-0.23-0.97-1.31-0.97-2.57
		c0-1.14,0.46-2.17,1.03-2.39l8.32-0.46c0.97-0.06,1.31,0.29,1.31,1.25v25.6c1.82,0,2.68-0.46,3.99-1.37l5.3-3.88h-2.79
		c-0.57-0.17-1.03-1.43-1.03-2.51s0.4-2.28,1.03-2.51h12.6c0.63,0.23,1.08,1.43,1.08,2.51s-0.46,2.34-1.08,2.51h-1.82
		c-0.68,0-1.2,0.11-1.88,0.68l-7.92,6.04C126.72,74.48,127.34,74.88,128.03,75.56z"/>
	<path class="st0" d="M156.98,83.66c3.99,0,7.07-1.37,7.98-1.88c0.8-0.06,1.54,0.8,2,1.88c0.46,1.25,0.34,2.45-0.06,2.91
		c-1.14,0.68-4.67,2.39-10.32,2.39c-8.84,0-14.37-4.67-14.37-13.28c0-8.49,6.1-13.91,13.11-13.91c8.38,0,11.8,6.44,11.8,12.43
		c0,0.57-0.17,0.8-1.94,1.14c-3.42,0.68-12.54,1.82-16.76,1.88C148.95,81.15,152.08,83.66,156.98,83.66z M159.55,71.74
		c0.74-0.23,0.97-0.29,0.97-0.63c0-1.82-1.82-4.28-5.24-4.28c-3.54,0-6.38,2.11-6.84,6.16C151.51,72.82,157.27,72.2,159.55,71.74z"
		/>
	<path class="st0" d="M190.1,61.76c2.62,0,3.99,1.03,4.28,1.42c0.28,1.88-1.03,4.9-2.45,5.42c-0.28-0.29-1.2-0.8-2.79-0.8
		c-3.31,0-5.53,2.45-6.44,4.28s-1.14,3.59-1.14,5.93v4.62c0,0.34,0.11,0.46,0.46,0.46h5.36c0.63,0.17,1.08,1.43,1.08,2.51
		s-0.46,2.28-1.08,2.51h-15.39c-0.63-0.23-1.08-1.43-1.08-2.51s0.46-2.34,1.08-2.51h3.14c0.4,0,0.46-0.17,0.46-0.46V68.72
		c0-0.74-0.29-1.08-0.97-1.08h-2.74c-0.46-0.23-0.97-1.25-0.97-2.51c0-1.14,0.46-2.22,1.03-2.45l8.32-0.46
		c0.91-0.06,1.31,0.23,1.31,1.25v3.71l0.29,0.11C183.2,64.39,185.77,61.76,190.1,61.76z"/>
	<path class="st0" d="M336.96,67.01c1.88-2.74,4.96-5.24,9.81-5.24c7.24,0,11.06,5.02,11.06,12.37c0,8.32-5.02,14.82-14.2,14.82
		c-5.24,0-7.07-1.77-7.81-2.56l-1.37,1.88c-0.4,0.46-0.63,0.68-1.37,0.68h-1.37c-0.86,0-1.03-0.23-1.03-1.14V52.47
		c0-0.68-0.34-1.03-0.97-1.03h-2.68c-0.74-0.06-1.2-1.43-1.2-2.57c0-1.03,0.4-2.28,1.25-2.39l8.32-0.46
		c0.91-0.06,1.25,0.23,1.25,1.25v19.61L336.96,67.01z M336.67,78.7c0,2.79,2,5.02,6.73,5.02c5.36,0,8.27-3.36,8.27-9.06
		c0-4.85-2.51-7.58-6.5-7.58c-4.16,0-6.56,2.79-7.47,4.79c-0.8,1.54-1.03,2.79-1.03,4.28V78.7z"/>
	<path class="st0" d="M374.12,88.96c-7.47,0-9.18-5.19-9.18-12.14v-7.92c0-0.74-0.34-1.08-1.03-1.08h-2.74
		c-0.51-0.29-0.97-1.31-0.97-2.51c0-1.14,0.46-2.28,1.03-2.45l8.44-0.46c0.91-0.06,1.25,0.29,1.25,1.25v12.37
		c0,4.96,1.2,7.64,5.19,7.64c3.71,0,5.87-2.39,6.9-4.28c0.86-1.71,1.2-3.25,1.2-5.36v-5.13c0-0.74-0.29-1.08-1.03-1.08h-2.68
		c-0.51-0.29-0.97-1.31-0.97-2.51c0-1.14,0.4-2.28,0.97-2.45l8.44-0.46c0.91-0.06,1.25,0.23,1.25,1.25v12.6
		c0,2.34,0.11,4.39,0.4,5.59c0.17,0.97,0.4,1.25,1.48,1.25h2.05c0.63,0.17,1.08,1.43,1.08,2.51s-0.4,2.28-1.08,2.51h-7.52
		c-0.97,0-1.25-0.11-1.6-0.68c-0.34-0.68-0.68-2.45-0.74-3.59l-0.23-0.11C382.5,85.94,379.42,88.96,374.12,88.96z"/>
	<path class="st0" d="M419.1,52.47c0-0.68-0.34-1.03-0.97-1.03h-3.48c-0.74-0.06-1.2-1.43-1.2-2.57c0-1.03,0.34-2.28,1.25-2.39
		l9.12-0.46c0.91-0.06,1.25,0.29,1.25,1.25v27.93c0,2.79,0.17,5.42,0.46,6.61c0.29,0.97,0.46,1.25,1.48,1.25h2.05
		c0.63,0.17,1.03,1.43,1.03,2.51s-0.4,2.28-1.03,2.51h-7.47c-0.97,0-1.25-0.11-1.6-0.68c-0.34-0.68-0.74-2.28-0.8-3.59l-0.34-0.11
		c-1.88,2.68-5.02,5.24-9.86,5.24c-7.24,0-11.06-5.02-11.06-12.37c0-8.32,5.02-14.82,14.2-14.82c3.71,0,6.16,1.03,6.96,1.71V52.47z
		 M419.1,71.97c0-1.88-0.29-2.51-1.08-3.19c-1.03-0.91-2.68-1.77-5.7-1.77c-5.3,0-8.21,3.36-8.21,9.06c0,4.85,2.51,7.58,6.5,7.58
		c4.16,0,6.5-2.74,7.47-4.79c0.74-1.42,1.03-2.79,1.03-4.39V71.97z"/>
	<path class="st0" d="M453.75,52.47c0-0.68-0.34-1.03-0.97-1.03h-3.48c-0.74-0.06-1.2-1.43-1.2-2.57c0-1.03,0.34-2.28,1.25-2.39
		l9.12-0.46c0.91-0.06,1.25,0.29,1.25,1.25v27.93c0,2.79,0.17,5.42,0.46,6.61c0.29,0.97,0.46,1.25,1.48,1.25h2.05
		c0.63,0.17,1.03,1.43,1.03,2.51s-0.4,2.28-1.03,2.51h-7.47c-0.97,0-1.25-0.11-1.6-0.68c-0.34-0.68-0.74-2.28-0.8-3.59l-0.34-0.11
		c-1.88,2.68-5.02,5.24-9.86,5.24c-7.24,0-11.06-5.02-11.06-12.37c0-8.32,5.02-14.82,14.19-14.82c3.71,0,6.16,1.03,6.96,1.71V52.47z
		 M453.75,71.97c0-1.88-0.29-2.51-1.08-3.19c-1.03-0.91-2.68-1.77-5.7-1.77c-5.3,0-8.21,3.36-8.21,9.06c0,4.85,2.51,7.58,6.5,7.58
		c4.16,0,6.5-2.74,7.47-4.79c0.74-1.42,1.03-2.79,1.03-4.39V71.97z"/>
	<path class="st0" d="M477.4,82.63c0,0.34,0.11,0.46,0.51,0.46h3.19c0.57,0.17,1.03,1.43,1.03,2.51s-0.4,2.28-1.03,2.51h-13.34
		c-0.63-0.23-1.03-1.43-1.03-2.51s0.46-2.34,1.03-2.51h3.13c0.4,0,0.51-0.17,0.51-0.46V68.72c0-0.74-0.23-1.08-0.97-1.08h-2.79
		c-0.51-0.23-0.97-1.31-0.97-2.57c0-1.14,0.46-2.17,1.03-2.39l8.44-0.46c0.91-0.06,1.25,0.28,1.25,1.25V82.63z M473.7,48.03
		c2.34,0,4.22,1.88,4.22,4.22c0,2.28-1.88,4.22-4.22,4.22c-2.28,0-4.16-1.94-4.16-4.22C469.54,49.91,471.42,48.03,473.7,48.03z"/>
	<path class="st0" d="M499.92,83.66c3.99,0,7.07-1.37,7.98-1.88c0.8-0.06,1.54,0.8,2,1.88c0.46,1.25,0.34,2.45-0.06,2.91
		c-1.14,0.68-4.67,2.39-10.32,2.39c-8.84,0-14.37-4.67-14.37-13.28c0-8.49,6.1-13.91,13.11-13.91c8.38,0,11.8,6.44,11.8,12.43
		c0,0.57-0.17,0.8-1.94,1.14c-3.42,0.68-12.54,1.82-16.76,1.88C491.88,81.15,495.02,83.66,499.92,83.66z M502.49,71.74
		c0.74-0.23,0.97-0.29,0.97-0.63c0-1.82-1.82-4.28-5.25-4.28c-3.53,0-6.38,2.11-6.84,6.16C494.45,72.82,500.2,72.2,502.49,71.74z"/>
	<path class="st0" d="M529.96,67.75c-0.29-0.85-1.14-1.65-3.76-1.65c-3.36,0-4.96,1.03-4.96,2.85s1.2,2.45,6.78,3.53
		c4.96,0.97,8.67,2.22,8.67,7.41c0,6.61-5.59,9.06-12.37,9.06c-4.67,0-7.3-0.97-8.32-1.65c-1.2-0.74-1.48-1.82-1.48-3.88
		c0-1.6,0.17-3.08,0.4-4.22c0.46-0.51,1.42-0.74,2.45-0.68c1.31,0,2.62,0.4,3.08,1.08c-0.11,0.57-0.23,1.71-0.23,2.51
		c0,0.85,0.11,1.43,1.03,1.82c0.68,0.34,1.88,0.68,3.65,0.68c4.05,0,5.7-1.65,5.7-3.59c0-2-1.42-2.62-6.61-3.71
		c-5.02-0.97-8.84-2.22-8.84-7.35c0-5.87,5.47-8.21,12.26-8.21c5.36,0,7.13,1.03,7.7,2.11c0.63,1.08,0.63,4.45,0.4,5.81
		c-0.46,0.51-1.31,0.91-2.68,0.91c-1.48,0-2.34-0.34-2.79-0.91C530.07,69.35,530.13,68.32,529.96,67.75z"/>
	<g class="st1">
		<path class="st2" d="M255.62,100.35c-1.76,0.07-3.51-0.01-5.26-0.09c-2.88-0.13-5.74-0.38-8.57-0.94
			c-1.33-0.26-2.63-0.59-3.87-1.15c-0.45-0.21-0.87-0.49-1.34-0.66c-0.23-0.08-0.4-0.27-0.53-0.48c-0.31-0.48-0.53-1-0.59-1.57
			c-0.15-1.35-0.18-2.69-0.06-4.05c0.07-0.83,0.13-1.67,0.2-2.5c0.11-1.35,0.28-2.69,0.33-4.04c0.02-0.5,0-1-0.1-1.49
			c-0.2-0.96-0.79-1.61-1.68-1.97c-0.27-0.11-0.6-0.1-0.9-0.14c-1.56-0.2-3.12-0.43-4.7-0.43c-0.96,0-1.92-0.16-2.88-0.24
			c-0.38-0.03-0.77-0.05-1.16-0.04c-0.89,0.02-1.77-0.03-2.65-0.07c-1.2-0.05-2.4-0.22-3.6-0.35c-0.81-0.09-1.63-0.17-2.42-0.43
			c-1.08-0.36-2.08-0.86-2.93-1.63c-0.67-0.6-1.13-1.34-1.41-2.21c-0.78-2.42-0.36-4.69,0.84-6.87c0.2-0.37,0.42-0.72,0.64-1.08
			c0.46-0.76,0.68-1.55,0.59-2.48c-0.11-1.08-0.12-2.19,0.06-3.27c0.22-1.3,0.77-2.45,1.56-3.49c0.94-1.26,2.06-2.33,3.32-3.28
			c1.19-0.9,2.37-1.83,3.51-2.8c1.09-0.92,1.99-2.01,2.9-3.1c0.91-1.09,1.88-2.12,2.98-3.02c0.7-0.57,1.5-1,2.19-1.59
			c0.72-0.61,1.51-1.07,2.39-1.43c0.65-0.26,1.25-0.66,1.86-1.01c1.81-1.04,3.77-1.72,5.75-2.33c1.37-0.43,2.76-0.73,4.17-0.97
			c1.66-0.29,3.21-0.91,4.78-1.48c2.72-0.99,5.44-1.96,8.21-2.79c1.63-0.49,3.29-0.87,4.99-1.04c1.04-0.1,2.06-0.36,3.11-0.41
			c0.66-0.03,1.32-0.03,1.97-0.06c0.35-0.01,0.71-0.05,1.06-0.06c0.74-0.03,1.48,0.06,2.2,0.2c1.82,0.36,3.64,0.63,5.48,0.79
			c0.95,0.08,1.9,0.07,2.84,0.14c1.88,0.14,3.77,0.15,5.63,0.42c2.07,0.29,4.15,0.47,6.23,0.71c1.8,0.21,3.55,0.61,5.23,1.27
			c1.77,0.69,3.37,1.71,4.74,3.01c1.19,1.12,2.1,2.44,2.53,4.09c0.41,1.58,0.87,3.16,1.41,4.71c0.67,1.93,0.82,3.92,0.62,5.95
			c-0.14,1.41-0.44,2.79-0.89,4.14c-0.07,0.21-0.14,0.43-0.25,0.63c-0.66,1.25-1.39,2.46-2.24,3.6c-1.61,2.15-3.67,3.83-5.79,5.43
			c-1.19,0.9-2.4,1.79-3.65,2.61c-0.27,0.18-0.52,0.38-0.75,0.61c-0.41,0.42-0.48,0.76-0.19,1.26c1.09,1.81,1.35,3.83,1.42,5.88
			c0.02,0.61-0.05,1.22-0.09,1.83c-0.1,1.5-0.02,2.99,0.17,4.47c0.23,1.7,0.48,3.41,0.67,5.11c0.08,0.73,0.04,1.48,0.06,2.22
			c0.01,0.59-0.44,0.86-0.82,1.18c-1.81,1.5-3.98,2.27-6.18,2.95c-2.99,0.91-6.04,1.53-9.11,2.06c-2.2,0.37-4.42,0.67-6.64,0.92
			c-1.52,0.17-3.04,0.3-4.56,0.43c-2.76,0.23-5.52,0.34-8.29,0.43C257.33,100.37,256.47,100.35,255.62,100.35z"/>
		<path class="st3" d="M284.86,69.86c-2.21-0.58-4.42-0.75-6.63-0.98c-2.67-0.27-5.34-0.17-8.01-0.16c-0.16,0-0.32,0.03-0.48,0.04
			c-0.34,0.02-0.36,0-0.39-0.32c-0.09-0.93-0.11-1.86-0.07-2.8c0.07-1.61,0.21-3.21,0.53-4.79c0.56-2.73,1.23-5.42,2.38-7.98
			c0.25-0.54,0.43-1.11,0.61-1.67c0.03-0.11,0.08-0.22,0.08-0.33c0-0.16-0.08-0.28-0.24-0.32c-0.13-0.04-0.26,0-0.34,0.12
			c-0.05,0.08-0.1,0.17-0.13,0.26c-0.33,1.06-0.84,2.05-1.27,3.08c-0.66,1.6-1.04,3.28-1.46,4.94c-0.58,2.27-0.86,4.58-0.91,6.92
			c-0.02,0.85,0.01,1.7,0.05,2.56c0.02,0.37,0.01,0.37-0.35,0.38c-1.85,0.1-3.7,0.18-5.54,0.3c-2.83,0.18-5.63,0.54-8.41,1.11
			c-0.91,0.19-1.83,0.34-2.75,0.5c-0.38,0.07-0.38,0.06-0.52-0.31c-0.16-0.42-0.34-0.83-0.59-1.21c-0.69-1.07-1.03-2.27-1.35-3.49
			c-0.72-2.79-1.58-5.53-2.67-8.2c-0.23-0.57-0.45-1.13-0.67-1.71c-0.87-2.35-2.1-4.51-3.47-6.6c-0.61-0.93-1.25-1.83-1.93-2.71
			c-0.14-0.18-0.29-0.35-0.44-0.51c-0.1-0.11-0.22-0.19-0.36-0.23c-0.17-0.05-0.32-0.01-0.41,0.16c-0.08,0.15-0.05,0.29,0.07,0.39
			c0.65,0.53,1.07,1.25,1.52,1.92c0.96,1.43,1.91,2.86,2.72,4.38c0.66,1.24,1.2,2.52,1.73,3.82c0.93,2.3,1.77,4.62,2.48,7
			c0.29,0.97,0.58,1.94,0.81,2.93c0.27,1.19,0.72,2.3,1.36,3.33c0.23,0.37,0.41,0.76,0.52,1.19c-0.24,0.18-0.53,0.16-0.79,0.2
			c-1.94,0.3-3.84,0.77-5.73,1.31c-0.62,0.18-1.24,0.32-1.86,0.49c-1.39,0.38-2.7,0.93-3.95,1.65c-0.56,0.32-0.4,0.35-0.82-0.17
			c-1.16-1.46-2.64-2.49-4.37-3.15c-1.14-0.44-2.35-0.65-3.56-0.84c-1.8-0.27-3.58-0.59-5.31-1.16c-1.59-0.52-2.97-1.37-4.14-2.56
			c-0.64-0.65-1.33-1.27-1.89-1.99c-0.06-0.08-0.13-0.14-0.2-0.21c-0.14-0.13-0.3-0.2-0.47-0.06c-0.16,0.13-0.13,0.28-0.05,0.43
			c0.04,0.09,0.09,0.17,0.15,0.25c1.21,1.48,2.49,2.88,4.14,3.87c1.15,0.69,2.42,1.11,3.72,1.44c1.51,0.38,3.06,0.61,4.59,0.86
			c0.87,0.14,1.74,0.32,2.58,0.61c1.53,0.54,2.84,1.42,3.93,2.62c0.2,0.22,0.4,0.46,0.61,0.71c-0.63,0.56-1.23,1.14-1.78,1.76
			c-0.5,0.57-0.97,1.16-1.35,1.82c-0.24,0.42-0.45,0.52-0.91,0.4c-0.57-0.14-1.15-0.12-1.73-0.17c-1.35-0.12-2.68-0.34-4.03-0.39
			c-0.84-0.03-1.67-0.02-2.51-0.13c-0.94-0.12-1.9-0.06-2.84-0.1c-1.64-0.07-3.28-0.1-4.9-0.38c-0.46-0.08-0.91-0.21-1.34-0.39
			c-0.63-0.26-1.01-0.76-1.33-1.34c-0.74-1.39-0.61-2.82-0.22-4.27c0.25-0.9,0.65-1.75,1.06-2.59c0.46-0.96,0.81-1.96,0.96-3.02
			c0.07-0.52,0.12-1.06,0.15-1.58c0.06-1.37,0.35-2.66,1.03-3.87c0.64-1.13,1.48-2.06,2.47-2.87c0.92-0.75,1.84-1.51,2.76-2.26
			c0.52-0.43,0.93-0.98,1.39-1.47c1.2-1.26,2.28-2.62,3.38-3.96c0.75-0.92,1.67-1.69,2.59-2.46c1.6-1.33,3.46-2.22,5.26-3.21
			c1.15-0.64,2.45-0.97,3.74-1.26c4.96-1.11,9.82-2.57,14.58-4.38c2.36-0.89,4.73-1.75,7.2-2.32c1.18-0.28,2.38-0.39,3.57-0.54
			c1.04-0.12,2.08-0.2,3.12-0.27c1.02-0.07,2.03-0.03,3.02,0.21c1.41,0.34,2.85,0.48,4.29,0.62c1.8,0.18,3.59,0.25,5.4,0.19
			c0.42-0.02,0.84-0.04,1.25-0.06c0.45-0.03,0.89,0.05,1.34,0.14c1.14,0.22,2.28,0.38,3.43,0.52c0.72,0.09,1.43,0.2,2.14,0.35
			c1.66,0.36,3.33,0.72,4.97,1.18c0.78,0.21,1.53,0.48,2.3,0.71c1.32,0.39,2.38,1.19,3.38,2.08c0.76,0.69,1.36,1.49,1.79,2.43
			c0.44,0.95,0.82,1.92,1.12,2.92c0.42,1.4,0.88,2.79,1.12,4.24c0.19,1.16,0.25,2.33,0.14,3.51c-0.03,0.29-0.06,0.58-0.1,0.86
			c-0.29,2.33-1.52,4.17-3.09,5.81c-1.49,1.56-3.14,2.95-4.8,4.34c-1.85,1.55-3.69,3.12-5.56,4.63c-0.21,0.17-0.44,0.33-0.64,0.51
			c-0.12,0.11-0.22,0.1-0.35,0.03c-0.81-0.39-1.65-0.73-2.51-0.98c-0.25-0.07-0.21-0.25-0.18-0.42c0.16-0.95,0.28-1.91,0.51-2.85
			c0.89-3.73,2.1-7.35,3.57-10.89c0.76-1.84,1.52-3.69,2.47-5.44c0.83-1.53,1.77-2.99,2.78-4.4c0.2-0.27,0.44-0.51,0.64-0.78
			c0.12-0.15,0.13-0.33-0.03-0.48c-0.15-0.13-0.31-0.09-0.44,0.02c-0.14,0.11-0.26,0.24-0.38,0.37c-0.26,0.31-0.51,0.62-0.74,0.95
			c-1.58,2.15-2.87,4.46-3.93,6.9c-1.5,3.47-2.88,6.99-3.91,10.63c-0.52,1.83-1,3.66-1.24,5.55
			C284.95,69.47,284.9,69.65,284.86,69.86z"/>
		<path class="st3" d="M236.99,94.03c0.04-0.77,0.05-1.43,0.13-2.07c0.18-1.47,0.43-2.93,0.59-4.39c0.17-1.49,0.28-2.98-0.03-4.47
			c-0.14-0.68-0.38-1.33-0.76-1.92c-0.09-0.15-0.16-0.32-0.26-0.46c-0.39-0.55-0.23-1.05,0.07-1.57c0.82-1.41,2.04-2.32,3.56-2.8
			c3.38-1.08,6.79-2.08,10.29-2.73c2.09-0.38,4.18-0.75,6.28-1.02c1.78-0.23,3.57-0.46,5.36-0.63c1.39-0.13,2.78-0.3,4.17-0.43
			c2.21-0.2,4.41-0.48,6.64-0.4c1.62,0.06,3.24,0.15,4.87,0.23c0.71,0.03,1.41,0.06,2.12,0.1c1.31,0.08,2.58,0.32,3.86,0.55
			c0.77,0.14,1.57,0.17,2.32,0.42c1.43,0.46,2.8,1.04,3.89,2.13c0.2,0.2,0.35,0.41,0.43,0.68c0.34,1.06,0.43,2.14,0.28,3.24
			c-0.25,1.79-0.14,3.56,0.2,5.33c0.36,1.93,0.64,3.87,0.83,5.82c0.02,0.25,0.13,0.5,0.07,0.77c-0.06-0.01-0.11-0.01-0.15-0.03
			c-1.5-0.9-3.17-1.32-4.85-1.68c-1.76-0.38-3.54-0.62-5.34-0.79c-2.34-0.23-4.68-0.33-7.03-0.41c-2.54-0.09-5.08-0.01-7.62,0.07
			c-2.22,0.07-4.43,0.23-6.64,0.43c-2.72,0.25-5.44,0.56-8.13,1c-3.67,0.59-7.3,1.32-10.81,2.6c-1.21,0.44-2.39,0.95-3.45,1.7
			C237.6,93.48,237.33,93.71,236.99,94.03z"/>
		<path class="st3" d="M256.7,98.24c-1.35,0-2.7,0.03-4.06-0.01c-2.69-0.07-5.37-0.22-8.03-0.57c-1.66-0.22-3.31-0.5-4.9-1.04
			c-0.47-0.16-0.94-0.34-1.37-0.6c-0.6-0.36-0.65-1.05-0.1-1.5c0.55-0.46,1.17-0.79,1.82-1.07c1.67-0.73,3.4-1.26,5.16-1.73
			c2.39-0.63,4.82-1.1,7.27-1.48c1.83-0.29,3.66-0.53,5.5-0.73c1.63-0.17,3.27-0.31,4.9-0.43c2.91-0.22,5.82-0.3,8.73-0.32
			c1.7-0.01,3.41,0,5.11,0.11c0.79,0.05,1.57,0.07,2.36,0.13c3.19,0.23,6.37,0.56,9.47,1.45c0.81,0.23,1.59,0.51,2.32,0.93
			c0.14,0.08,0.28,0.16,0.41,0.26c0.24,0.19,0.24,0.34,0,0.54c-0.42,0.35-0.89,0.63-1.38,0.88c-1.5,0.76-3.09,1.27-4.7,1.73
			c-2.71,0.76-5.47,1.31-8.24,1.76c-2.28,0.37-4.58,0.68-6.88,0.93c-1.65,0.18-3.3,0.31-4.95,0.43
			C262.33,98.1,259.52,98.21,256.7,98.24z"/>
	</g>
</g>
</svg>
